<svg width="40" height="40" viewBox="0 0 40 40" fill="none" xmlns="http://www.w3.org/2000/svg">
<rect width="40" height="40" rx="10" fill="#011F26"/>
<path d="M11.4667 23.6074H21.3333V25.4741H11.4667V23.6074Z" fill="#F2A516"/>
<path d="M11.4667 20.6741H32.2667V22.5408H11.4667V20.6741Z" fill="#F2A516"/>
<path d="M11.4667 17.2074H25.6V19.0741H11.4667V17.2074Z" fill="#F2A516"/>
<path d="M11.4667 14.0074H28.2667V15.8741H11.4667V14.0074Z" fill="#F2A516"/>
<path d="M8.11111 14.2741L8.56863 14L9.52792 15.6013L9.0704 15.8754L8.11111 14.2741Z" fill="#F2A516"/>
<path d="M10.2895 14.6116L10.5426 15.081L9.04899 15.8863L8.7959 15.4168L10.2895 14.6116Z" fill="#F2A516"/>
<path d="M8 20.9482L8.45752 20.6741L9.4168 22.2754L8.95928 22.5495L8 20.9482Z" fill="#F2A516"/>
<path d="M10.1784 21.2857L10.4315 21.7551L8.93787 22.5604L8.68479 22.0909L10.1784 21.2857Z" fill="#F2A516"/>
</svg>
